<svg xmlns="http://www.w3.org/2000/svg" xmlns:svg="http://www.w3.org/2000/svg" id="svg2" width="356" height="216" fill="#000" fill-opacity="0" stroke="#000" stroke-dasharray="none" stroke-dashoffset="0" stroke-linecap="square" stroke-linejoin="miter" stroke-miterlimit="10" stroke-opacity="0" stroke-width="1" color-interpolation="auto" color-rendering="auto" font-family="'Dialog'" font-size="12" font-style="normal" font-weight="normal" image-rendering="auto" shape-rendering="auto" text-rendering="auto" version="1.1"><metadata id="metadata174"/><defs id="genericDefs"><marker id="Arrow2Lend" orient="auto" refX="0" refY="0" style="overflow:visible"><path id="path3970" d="M 8.7185878,4.0337352 L -2.2072895,0.016013256 L 8.7185884,-4.0017078 C 6.9730900,-1.6296469 6.9831476,1.6157441 8.7185878,4.0337352 z" transform="scale(1.1) rotate(180) translate(1,0)" style="fill-rule:evenodd;stroke-width:.625;stroke-linejoin:round"/></marker><marker id="Arrow2Lstart" orient="auto" refX="0" refY="0" style="overflow:visible"><path id="path3967" d="M 8.7185878,4.0337352 L -2.2072895,0.016013256 L 8.7185884,-4.0017078 C 6.9730900,-1.6296469 6.9831476,1.6157441 8.7185878,4.0337352 z" transform="scale(1.1) translate(1,0)" style="fill-rule:evenodd;stroke-width:.625;stroke-linejoin:round"/></marker></defs><g id="g5"><defs id="defs1"><clipPath id="clipPath1" clipPathUnits="userSpaceOnUse"><path id="path9" d="M-7 -7 L101 -7 L101 221 L-7 221 L-7 -7 Z"/></clipPath><clipPath id="clipPath2" clipPathUnits="userSpaceOnUse"><path id="path12" d="M-7 -7 L91 -7 L91 221 L-7 221 L-7 -7 Z"/></clipPath><clipPath id="clipPath3" clipPathUnits="userSpaceOnUse"><path id="path15" d="M-7 -7 L19 -7 L19 116 L-7 116 L-7 -7 Z"/></clipPath><clipPath id="clipPath4" clipPathUnits="userSpaceOnUse"><path id="path18" d="M-7 -7 L19 -7 L19 101 L-7 101 L-7 -7 Z"/></clipPath><clipPath id="clipPath5" clipPathUnits="userSpaceOnUse"><path id="path21" d="M-7 -7 L19 -7 L19 61 L-7 61 L-7 -7 Z"/></clipPath><clipPath id="clipPath6" clipPathUnits="userSpaceOnUse"><path id="path24" d="M-90 -30 L180 -30 L180 60 L-90 60 L-90 -30 Z"/></clipPath><clipPath id="clipPath7" clipPathUnits="userSpaceOnUse"><path id="path27" d="M-80 -30 L160 -30 L160 60 L-80 60 L-80 -30 Z"/></clipPath><clipPath id="clipPath8" clipPathUnits="userSpaceOnUse"><path id="path30" d="M0 0 L231 0 L231 104 L0 104 L0 0 Z"/></clipPath><clipPath id="clipPath9" clipPathUnits="userSpaceOnUse"><path id="path33" d="M0 0 L221 0 L221 104 L0 104 L0 0 Z"/></clipPath><clipPath id="clipPath10" clipPathUnits="userSpaceOnUse"><path id="path36" d="M-41 -15 L82 -15 L82 30 L-41 30 L-41 -15 Z"/></clipPath><clipPath id="clipPath11" clipPathUnits="userSpaceOnUse"><path id="path39" d="M-87 -15 L174 -15 L174 30 L-87 30 L-87 -15 Z"/></clipPath><clipPath id="clipPath12" clipPathUnits="userSpaceOnUse"><path id="path42" d="M-108 -15 L216 -15 L216 30 L-108 30 L-108 -15 Z"/></clipPath></defs><g id="g44" fill="#fff" fill-opacity="1" stroke="#fff" stroke-opacity="1" text-rendering="geometricPrecision"><rect id="rect46" width="356" height="216" x="0" y="0" stroke="none"/></g><g id="g48" fill="#fff" fill-opacity="1" stroke="#fff" stroke-opacity="1" font-family="sans-serif" font-size="11" text-rendering="geometricPrecision" transform="translate(2,2)"><rect id="rect50" width="89" height="35" x="0" y="0" stroke="none" clip-path="url(#clipPath1)"/></g><g id="g52" fill="#000" fill-opacity="1" stroke="#000" stroke-linecap="butt" stroke-linejoin="round" stroke-miterlimit="0" stroke-opacity="1" font-family="sans-serif" font-size="11" text-rendering="geometricPrecision" transform="translate(2,2)"><rect id="rect54" width="89" height="35" x="0" y="0" fill="none" clip-path="url(#clipPath1)"/><line id="line56" x1="44" x2="44" y1="35" y2="210" fill="none" stroke-dasharray="8 3" stroke-linejoin="bevel" clip-path="url(#clipPath1)"/></g><g id="g58" fill="#fff" fill-opacity="1" stroke="#fff" stroke-opacity="1" font-family="sans-serif" font-size="11" text-rendering="geometricPrecision" transform="translate(142,2)"><rect id="rect60" width="79" height="35" x="0" y="0" stroke="none" clip-path="url(#clipPath2)"/></g><g id="g62" fill="#000" fill-opacity="1" stroke="#000" stroke-linecap="butt" stroke-linejoin="round" stroke-miterlimit="0" stroke-opacity="1" font-family="sans-serif" font-size="11" text-rendering="geometricPrecision" transform="translate(142,2)"><rect id="rect64" width="79" height="35" x="0" y="0" fill="none" clip-path="url(#clipPath2)"/><line id="line66" x1="39" x2="39" y1="35" y2="210" fill="none" stroke-dasharray="8 3" stroke-linejoin="bevel" clip-path="url(#clipPath2)"/></g><g id="g68" font-size="11" text-rendering="geometricPrecision" transform="matrix(1.0083138,0,0,0.87968046,42.966745,82.031062)" style="font-size:11px;fill:#fff;fill-opacity:1;stroke:#fff;stroke-opacity:1;font-family:sans-serif"><rect id="rect70" width="8" height="105" x="0" y="0" clip-path="url(#clipPath3)" style="stroke:none"/></g><g id="g72" stroke-miterlimit="0" font-size="11" text-rendering="geometricPrecision" transform="matrix(1.008637,0,0,0.85916146,42.965452,81.965452)" style="font-size:11px;fill:#000;fill-opacity:1;stroke:#000;stroke-linecap:butt;stroke-linejoin:round;stroke-miterlimit:0;stroke-opacity:1;font-family:sans-serif"><rect id="rect74" width="8" height="105" x="0" y="0" clip-path="url(#clipPath3)" style="fill:none"/></g><g id="g76" font-size="11" text-rendering="geometricPrecision" transform="matrix(1.0056712,0,0,0.91697895,177.97732,82.021661)" style="font-size:11px;fill:#fff;fill-opacity:1;stroke:#fff;stroke-opacity:1;font-family:sans-serif"><rect id="rect78" width="8" height="90" x="0" y="0" clip-path="url(#clipPath4)" style="stroke:none"/></g><g id="g80" stroke-miterlimit="0" font-size="11" text-rendering="geometricPrecision" transform="matrix(1.0061212,0,0,0.8989568,177.97552,81.975515)" style="font-size:11px;fill:#000;fill-opacity:1;stroke:#000;stroke-linecap:butt;stroke-linejoin:round;stroke-miterlimit:0;stroke-opacity:1;font-family:sans-serif"><rect id="rect82" width="8" height="90" x="0" y="0" clip-path="url(#clipPath4)" style="fill:none"/></g><g id="g84" fill="#fff" fill-opacity="1" stroke="#fff" stroke-opacity="1" font-family="sans-serif" font-size="11" text-rendering="geometricPrecision" transform="translate(262,2)"><rect id="rect86" width="89" height="35" x="0" y="0" stroke="none" clip-path="url(#clipPath1)"/></g><g id="g88" fill="#000" fill-opacity="1" stroke="#000" stroke-linecap="butt" stroke-linejoin="round" stroke-miterlimit="0" stroke-opacity="1" font-family="sans-serif" font-size="11" text-rendering="geometricPrecision" transform="translate(262,2)"><rect id="rect90" width="89" height="35" x="0" y="0" fill="none" clip-path="url(#clipPath1)"/><line id="line92" x1="44" x2="44" y1="35" y2="210" fill="none" stroke-dasharray="8 3" stroke-linejoin="bevel" clip-path="url(#clipPath1)"/></g><g id="g94" font-size="11" text-rendering="geometricPrecision" transform="matrix(1.0096296,0,0,0.86143397,302.96148,102.03558)" style="font-size:11px;fill:#fff;fill-opacity:1;stroke:#fff;stroke-opacity:1;font-family:sans-serif"><rect id="rect96" width="8" height="50" x="0" y="0" clip-path="url(#clipPath5)" style="stroke:none"/></g><g id="g98" stroke-miterlimit="0" font-size="11" text-rendering="geometricPrecision" transform="matrix(1.0097702,0,0,0.84156324,302.96092,101.96092)" style="font-size:11px;fill:#000;fill-opacity:1;stroke:#000;stroke-linecap:butt;stroke-linejoin:round;stroke-miterlimit:0;stroke-opacity:1;font-family:sans-serif"><rect id="rect100" width="8" height="50" x="0" y="0" clip-path="url(#clipPath5)" style="fill:none"/></g><g id="g102" fill="#000" fill-opacity="1" stroke="#000" stroke-opacity="1" font-family="sans-serif" font-size="11" text-rendering="geometricPrecision" transform="translate(262,2)"><text id="text104" x="26" y="12" stroke="none" clip-path="url(#clipPath6)" xml:space="preserve">Service</text><text id="text106" x="7" y="27" stroke="none" clip-path="url(#clipPath6)" xml:space="preserve">Implementation</text></g><g id="g108" fill="#000" fill-opacity="1" stroke="#000" stroke-opacity="1" font-family="sans-serif" font-size="11" text-rendering="geometricPrecision" transform="translate(142,2)"><text id="text110" x="20" y="12" stroke="none" clip-path="url(#clipPath7)" xml:space="preserve">Process</text><text id="text112" x="22" y="27" stroke="none" clip-path="url(#clipPath7)" xml:space="preserve">Engine</text></g><g id="g114" fill="#000" fill-opacity="1" stroke="#000" stroke-opacity="1" font-family="sans-serif" font-size="11" text-rendering="geometricPrecision" transform="translate(2,2)"><text id="text116" x="15" y="12" stroke="none" clip-path="url(#clipPath6)" xml:space="preserve">Client Code</text><text id="text118" x="19" y="27" stroke="none" clip-path="url(#clipPath6)" xml:space="preserve">(Unit Test)</text></g><g id="g120" fill="#000" fill-opacity="1" stroke="#000" stroke-linecap="butt" stroke-linejoin="round" stroke-opacity="1" font-family="sans-serif" font-size="11" text-rendering="geometricPrecision" transform="translate(1,32)"><line id="line122" x1="50" x2="177" y1="50" y2="50" fill="none" clip-path="url(#clipPath8)"/><polygon id="polygon124" stroke="none" points="177 50 165 44 165 56" clip-path="url(#clipPath8)"/><polygon id="polygon126" fill="none" points="177 50 165 44 165 56" clip-path="url(#clipPath8)"/></g><g id="g128" fill="#000" fill-opacity="1" stroke="#000" stroke-linecap="butt" stroke-linejoin="round" stroke-opacity="1" font-family="sans-serif" font-size="11" text-rendering="geometricPrecision" transform="translate(136,52)"><line id="line130" x1="50" x2="167" y1="50" y2="50" fill="none" clip-path="url(#clipPath9)"/><polygon id="polygon132" stroke="none" points="167 50 155 44 155 56" clip-path="url(#clipPath9)"/><polygon id="polygon134" fill="none" points="167 50 155 44 155 56" clip-path="url(#clipPath9)"/></g><g id="g136" fill="#000" fill-opacity="1" stroke="#000" stroke-dasharray="8 3" stroke-linecap="butt" stroke-linejoin="round" stroke-miterlimit="0" stroke-opacity="1" font-family="sans-serif" font-size="11" text-rendering="geometricPrecision" transform="translate(136,92)"><line id="line138" x1="167" x2="50" y1="50" y2="50" fill="none" clip-path="url(#clipPath9)"/><line id="line140" x1="50" x2="62" y1="50" y2="56" fill="none" stroke-dasharray="none" stroke-miterlimit="10" clip-path="url(#clipPath9)"/><line id="line142" x1="50" x2="62" y1="50" y2="44" fill="none" stroke-dasharray="none" stroke-miterlimit="10" clip-path="url(#clipPath9)"/></g><g id="g144" fill="#000" fill-opacity="1" stroke="#000" stroke-dasharray="8 3" stroke-linecap="butt" stroke-linejoin="round" stroke-miterlimit="0" stroke-opacity="1" font-family="sans-serif" font-size="11" text-rendering="geometricPrecision" transform="translate(1,112)"><line id="line146" x1="177" x2="50" y1="50" y2="50" fill="none" clip-path="url(#clipPath8)"/><line id="line148" x1="50" x2="62" y1="50" y2="56" fill="none" stroke-dasharray="none" stroke-miterlimit="10" clip-path="url(#clipPath8)"/><line id="line150" x1="50" x2="62" y1="50" y2="44" fill="none" stroke-dasharray="none" stroke-miterlimit="10" clip-path="url(#clipPath8)"/></g><g id="g160" fill="#000" fill-opacity="1" stroke="#000" stroke-opacity="1" font-family="sans-serif" font-size="11" text-rendering="geometricPrecision" transform="translate(202,82)"><text id="text162" x="9" y="12" stroke="none" clip-path="url(#clipPath11)" xml:space="preserve">1.1: execute()</text></g><g id="g164" fill="#000" fill-opacity="1" stroke="#000" stroke-opacity="1" font-family="sans-serif" font-size="11" text-rendering="geometricPrecision" transform="translate(52,62)"><text id="text166" x="9" y="12" stroke="none" clip-path="url(#clipPath12)" xml:space="preserve">1: completeTask()</text></g></g></svg>