<svg xmlns="http://www.w3.org/2000/svg" xmlns:svg="http://www.w3.org/2000/svg" id="svg2" width="636" height="376" fill="#000" fill-opacity="0" stroke="#000" stroke-dasharray="none" stroke-dashoffset="0" stroke-linecap="square" stroke-linejoin="miter" stroke-miterlimit="10" stroke-opacity="0" stroke-width="1" color-interpolation="auto" color-rendering="auto" font-family="'Dialog'" font-size="12" font-style="normal" font-weight="normal" image-rendering="auto" shape-rendering="auto" text-rendering="auto" version="1.1"><metadata id="metadata378"/><g id="g5"><defs id="defs1"><clipPath id="clipPath1" clipPathUnits="userSpaceOnUse"><path id="path9" d="M-7 -7 L151 -7 L151 381 L-7 381 L-7 -7 Z"/></clipPath><clipPath id="clipPath2" clipPathUnits="userSpaceOnUse"><path id="path12" d="M-7 -7 L111 -7 L111 381 L-7 381 L-7 -7 Z"/></clipPath><clipPath id="clipPath3" clipPathUnits="userSpaceOnUse"><path id="path15" d="M-7 -7 L19 -7 L19 101 L-7 101 L-7 -7 Z"/></clipPath><clipPath id="clipPath4" clipPathUnits="userSpaceOnUse"><path id="path18" d="M-7 -7 L131 -7 L131 381 L-7 381 L-7 -7 Z"/></clipPath><clipPath id="clipPath5" clipPathUnits="userSpaceOnUse"><path id="path21" d="M-7 -7 L19 -7 L19 61 L-7 61 L-7 -7 Z"/></clipPath><clipPath id="clipPath6" clipPathUnits="userSpaceOnUse"><path id="path24" d="M-7 -7 L101 -7 L101 381 L-7 381 L-7 -7 Z"/></clipPath><clipPath id="clipPath7" clipPathUnits="userSpaceOnUse"><path id="path27" d="M-7 -7 L19 -7 L19 41 L-7 41 L-7 -7 Z"/></clipPath><clipPath id="clipPath8" clipPathUnits="userSpaceOnUse"><path id="path30" d="M-7 -7 L36 -7 L36 167 L-7 167 L-7 -7 Z"/></clipPath><clipPath id="clipPath9" clipPathUnits="userSpaceOnUse"><path id="path33" d="M-7 -7 L91 -7 L91 381 L-7 381 L-7 -7 Z"/></clipPath><clipPath id="clipPath10" clipPathUnits="userSpaceOnUse"><path id="path36" d="M-80 -30 L160 -30 L160 60 L-80 60 L-80 -30 Z"/></clipPath><clipPath id="clipPath11" clipPathUnits="userSpaceOnUse"><path id="path39" d="M-90 -30 L180 -30 L180 60 L-90 60 L-90 -30 Z"/></clipPath><clipPath id="clipPath12" clipPathUnits="userSpaceOnUse"><path id="path42" d="M-120 -30 L240 -30 L240 60 L-120 60 L-120 -30 Z"/></clipPath><clipPath id="clipPath13" clipPathUnits="userSpaceOnUse"><path id="path45" d="M-100 -15 L200 -15 L200 30 L-100 30 L-100 -15 Z"/></clipPath><clipPath id="clipPath14" clipPathUnits="userSpaceOnUse"><path id="path48" d="M-140 -15 L280 -15 L280 30 L-140 30 L-140 -15 Z"/></clipPath><clipPath id="clipPath15" clipPathUnits="userSpaceOnUse"><path id="path51" d="M0 0 L236 0 L236 104 L0 104 L0 0 Z"/></clipPath><clipPath id="clipPath16" clipPathUnits="userSpaceOnUse"><path id="path54" d="M0 0 L231 0 L231 104 L0 104 L0 0 Z"/></clipPath><clipPath id="clipPath17" clipPathUnits="userSpaceOnUse"><path id="path57" d="M0 0 L178 0 L178 104 L0 104 L0 0 Z"/></clipPath><clipPath id="clipPath18" clipPathUnits="userSpaceOnUse"><path id="path60" d="M0 0 L476 0 L476 104 L0 104 L0 0 Z"/></clipPath><clipPath id="clipPath19" clipPathUnits="userSpaceOnUse"><path id="path63" d="M-56 -15 L112 -15 L112 30 L-56 30 L-56 -15 Z"/></clipPath><clipPath id="clipPath20" clipPathUnits="userSpaceOnUse"><path id="path66" d="M-59 -15 L118 -15 L118 30 L-59 30 L-59 -15 Z"/></clipPath><clipPath id="clipPath21" clipPathUnits="userSpaceOnUse"><path id="path69" d="M-96 -15 L192 -15 L192 30 L-96 30 L-96 -15 Z"/></clipPath><clipPath id="clipPath22" clipPathUnits="userSpaceOnUse"><path id="path72" d="M-66 -15 L132 -15 L132 30 L-66 30 L-66 -15 Z"/></clipPath></defs><g id="g74" fill="#fff" fill-opacity="1" stroke="#fff" stroke-opacity="1" text-rendering="geometricPrecision"><rect id="rect76" width="636" height="376" x="0" y="0" stroke="none"/></g><g id="g78" fill="#fff" fill-opacity="1" stroke="#fff" stroke-opacity="1" font-family="sans-serif" font-size="11" text-rendering="geometricPrecision" transform="translate(2,2)"><rect id="rect80" width="139" height="35" x="0" y="0" stroke="none" clip-path="url(#clipPath1)"/></g><g id="g82" fill="#000" fill-opacity="1" stroke="#000" stroke-linecap="butt" stroke-linejoin="round" stroke-miterlimit="0" stroke-opacity="1" font-family="sans-serif" font-size="11" text-rendering="geometricPrecision" transform="translate(2,2)"><rect id="rect84" width="139" height="35" x="0" y="0" fill="none" clip-path="url(#clipPath1)"/><line id="line86" x1="69" x2="69" y1="35" y2="370" fill="none" stroke-dasharray="8 3" stroke-linejoin="bevel" clip-path="url(#clipPath1)"/></g><g id="g88" fill="#fff" fill-opacity="1" stroke="#fff" stroke-opacity="1" font-family="sans-serif" font-size="11" text-rendering="geometricPrecision" transform="translate(162,2)"><rect id="rect90" width="99" height="35" x="0" y="0" stroke="none" clip-path="url(#clipPath2)"/></g><g id="g92" fill="#000" fill-opacity="1" stroke="#000" stroke-linecap="butt" stroke-linejoin="round" stroke-miterlimit="0" stroke-opacity="1" font-family="sans-serif" font-size="11" text-rendering="geometricPrecision" transform="translate(162,2)"><rect id="rect94" width="99" height="35" x="0" y="0" fill="none" clip-path="url(#clipPath2)"/><line id="line96" x1="49" x2="49" y1="35" y2="370" fill="none" stroke-dasharray="8 3" stroke-linejoin="bevel" clip-path="url(#clipPath2)"/></g><g id="g98" fill="#fff" fill-opacity="1" stroke="#fff" stroke-opacity="1" font-family="sans-serif" font-size="11" text-rendering="geometricPrecision" transform="translate(68,82)"><rect id="rect100" width="8" height="90" x="0" y="0" stroke="none" clip-path="url(#clipPath3)"/></g><g id="g102" fill="#000" fill-opacity="1" stroke="#000" stroke-linecap="butt" stroke-linejoin="round" stroke-miterlimit="0" stroke-opacity="1" font-family="sans-serif" font-size="11" text-rendering="geometricPrecision" transform="translate(68,82)"><rect id="rect104" width="8" height="90" x="0" y="0" fill="none" clip-path="url(#clipPath3)"/></g><g id="g106" fill="#fff" fill-opacity="1" stroke="#fff" stroke-opacity="1" font-family="sans-serif" font-size="11" text-rendering="geometricPrecision" transform="translate(208,82)"><rect id="rect108" width="8" height="90" x="0" y="0" stroke="none" clip-path="url(#clipPath3)"/></g><g id="g110" fill="#000" fill-opacity="1" stroke="#000" stroke-linecap="butt" stroke-linejoin="round" stroke-miterlimit="0" stroke-opacity="1" font-family="sans-serif" font-size="11" text-rendering="geometricPrecision" transform="translate(208,82)"><rect id="rect112" width="8" height="90" x="0" y="0" fill="none" clip-path="url(#clipPath3)"/></g><g id="g114" fill="#fff" fill-opacity="1" stroke="#fff" stroke-opacity="1" font-family="sans-serif" font-size="11" text-rendering="geometricPrecision" transform="translate(292,2)"><rect id="rect116" width="119" height="35" x="0" y="0" stroke="none" clip-path="url(#clipPath4)"/></g><g id="g118" fill="#000" fill-opacity="1" stroke="#000" stroke-linecap="butt" stroke-linejoin="round" stroke-miterlimit="0" stroke-opacity="1" font-family="sans-serif" font-size="11" text-rendering="geometricPrecision" transform="translate(292,2)"><rect id="rect120" width="119" height="35" x="0" y="0" fill="none" clip-path="url(#clipPath4)"/><line id="line122" x1="59" x2="59" y1="35" y2="370" fill="none" stroke-dasharray="8 3" stroke-linejoin="bevel" clip-path="url(#clipPath4)"/></g><g id="g124" fill="#fff" fill-opacity="1" stroke="#fff" stroke-opacity="1" font-family="sans-serif" font-size="11" text-rendering="geometricPrecision" transform="translate(348,102)"><rect id="rect126" width="8" height="50" x="0" y="0" stroke="none" clip-path="url(#clipPath5)"/></g><g id="g128" fill="#000" fill-opacity="1" stroke="#000" stroke-linecap="butt" stroke-linejoin="round" stroke-miterlimit="0" stroke-opacity="1" font-family="sans-serif" font-size="11" text-rendering="geometricPrecision" transform="translate(348,102)"><rect id="rect130" width="8" height="50" x="0" y="0" fill="none" clip-path="url(#clipPath5)"/></g><g id="g132" fill="#fff" fill-opacity="1" stroke="#fff" stroke-opacity="1" font-family="sans-serif" font-size="11" text-rendering="geometricPrecision" transform="translate(442,2)"><rect id="rect134" width="89" height="35" x="0" y="0" stroke="none" clip-path="url(#clipPath6)"/></g><g id="g136" fill="#000" fill-opacity="1" stroke="#000" stroke-linecap="butt" stroke-linejoin="round" stroke-miterlimit="0" stroke-opacity="1" font-family="sans-serif" font-size="11" text-rendering="geometricPrecision" transform="translate(442,2)"><rect id="rect138" width="89" height="35" x="0" y="0" fill="none" clip-path="url(#clipPath6)"/><line id="line140" x1="44" x2="44" y1="35" y2="370" fill="none" stroke-dasharray="8 3" stroke-linejoin="bevel" clip-path="url(#clipPath6)"/></g><g id="g142" fill="#fff" fill-opacity="1" stroke="#fff" stroke-opacity="1" font-family="sans-serif" font-size="11" text-rendering="geometricPrecision" transform="translate(483,112)"><rect id="rect144" width="8" height="30" x="0" y="0" stroke="none" clip-path="url(#clipPath7)"/></g><g id="g146" fill="#000" fill-opacity="1" stroke="#000" stroke-linecap="butt" stroke-linejoin="round" stroke-miterlimit="0" stroke-opacity="1" font-family="sans-serif" font-size="11" text-rendering="geometricPrecision" transform="translate(483,112)"><rect id="rect148" width="8" height="30" x="0" y="0" fill="none" clip-path="url(#clipPath7)"/></g><g id="g150" fill="#000" fill-opacity="1" stroke="#000" stroke-dasharray="8 3" stroke-linecap="butt" stroke-linejoin="bevel" stroke-miterlimit="0" stroke-opacity="1" font-family="sans-serif" font-size="11" text-rendering="geometricPrecision" transform="translate(486,167)"><path id="path152" fill="none" d="M0 0 L24 35 L24 120 L0 155" clip-path="url(#clipPath8)"/></g><g id="g154" fill="#fff" fill-opacity="1" stroke="#fff" stroke-opacity="1" font-family="sans-serif" font-size="11" text-rendering="geometricPrecision" transform="translate(552,2)"><rect id="rect156" width="79" height="35" x="0" y="0" stroke="none" clip-path="url(#clipPath9)"/></g><g id="g158" fill="#000" fill-opacity="1" stroke="#000" stroke-linecap="butt" stroke-linejoin="round" stroke-miterlimit="0" stroke-opacity="1" font-family="sans-serif" font-size="11" text-rendering="geometricPrecision" transform="translate(552,2)"><rect id="rect160" width="79" height="35" x="0" y="0" fill="none" clip-path="url(#clipPath9)"/><line id="line162" x1="39" x2="39" y1="35" y2="370" fill="none" stroke-dasharray="8 3" stroke-linejoin="bevel" clip-path="url(#clipPath9)"/></g><g id="g164" fill="#fff" fill-opacity="1" stroke="#fff" stroke-opacity="1" font-family="sans-serif" font-size="11" text-rendering="geometricPrecision" transform="translate(588,202)"><rect id="rect166" width="8" height="90" x="0" y="0" stroke="none" clip-path="url(#clipPath3)"/></g><g id="g168" fill="#000" fill-opacity="1" stroke="#000" stroke-linecap="butt" stroke-linejoin="round" stroke-miterlimit="0" stroke-opacity="1" font-family="sans-serif" font-size="11" text-rendering="geometricPrecision" transform="translate(588,202)"><rect id="rect170" width="8" height="90" x="0" y="0" fill="none" clip-path="url(#clipPath3)"/></g><g id="g172" fill="#fff" fill-opacity="1" stroke="#fff" stroke-opacity="1" font-family="sans-serif" font-size="11" text-rendering="geometricPrecision" transform="translate(208,232)"><rect id="rect174" width="8" height="30" x="0" y="0" stroke="none" clip-path="url(#clipPath7)"/></g><g id="g176" fill="#000" fill-opacity="1" stroke="#000" stroke-linecap="butt" stroke-linejoin="round" stroke-miterlimit="0" stroke-opacity="1" font-family="sans-serif" font-size="11" text-rendering="geometricPrecision" transform="translate(208,232)"><rect id="rect178" width="8" height="30" x="0" y="0" fill="none" clip-path="url(#clipPath7)"/></g><g id="g180" fill="#fff" fill-opacity="1" stroke="#fff" stroke-opacity="1" font-family="sans-serif" font-size="11" text-rendering="geometricPrecision" transform="translate(506,202)"><rect id="rect182" width="8" height="90" x="0" y="0" stroke="none" clip-path="url(#clipPath3)"/></g><g id="g184" fill="#000" fill-opacity="1" stroke="#000" stroke-linecap="butt" stroke-linejoin="round" stroke-miterlimit="0" stroke-opacity="1" font-family="sans-serif" font-size="11" text-rendering="geometricPrecision" transform="translate(506,202)"><rect id="rect186" width="8" height="90" x="0" y="0" fill="none" clip-path="url(#clipPath3)"/></g><g id="g188" fill="#000" fill-opacity="1" stroke="#000" stroke-opacity="1" font-family="sans-serif" font-size="11" text-rendering="geometricPrecision" transform="translate(552,2)"><text id="text190" x="17" y="12" stroke="none" clip-path="url(#clipPath10)" xml:space="preserve">Business</text><text id="text192" x="26" y="27" stroke="none" clip-path="url(#clipPath10)" xml:space="preserve">Logic</text></g><g id="g194" fill="#000" fill-opacity="1" stroke="#000" stroke-opacity="1" font-family="sans-serif" font-size="11" text-rendering="geometricPrecision" transform="translate(442,2)"><text id="text196" x="22" y="12" stroke="none" clip-path="url(#clipPath11)" xml:space="preserve">Message</text><text id="text198" x="27" y="27" stroke="none" clip-path="url(#clipPath11)" xml:space="preserve">Queue</text></g><g id="g200" fill="#000" fill-opacity="1" stroke="#000" stroke-opacity="1" font-family="sans-serif" font-size="11" text-rendering="geometricPrecision" transform="translate(292,2)"><text id="text202" x="14" y="12" stroke="none" clip-path="url(#clipPath12)" xml:space="preserve">Signallable Activity</text><text id="text204" x="38" y="27" stroke="none" clip-path="url(#clipPath12)" xml:space="preserve">Behavior</text></g><g id="g206" fill="#000" fill-opacity="1" stroke="#000" stroke-opacity="1" font-family="sans-serif" font-size="11" text-rendering="geometricPrecision" transform="translate(162,2)"><text id="text208" x="10" y="12" stroke="none" clip-path="url(#clipPath13)" xml:space="preserve">Process Engine</text></g><g id="g210" fill="#000" fill-opacity="1" stroke="#000" stroke-opacity="1" font-family="sans-serif" font-size="11" text-rendering="geometricPrecision" transform="translate(2,2)"><text id="text212" x="14" y="12" stroke="none" clip-path="url(#clipPath14)" xml:space="preserve">Client Code (Unit Test)</text></g><g id="g214" fill="#000" fill-opacity="1" stroke="#000" stroke-linecap="butt" stroke-linejoin="round" stroke-opacity="1" font-family="sans-serif" font-size="11" text-rendering="geometricPrecision" transform="translate(26,32)"><line id="line216" x1="50" x2="182" y1="50" y2="50" fill="none" clip-path="url(#clipPath15)"/><polygon id="polygon218" stroke="none" points="182 50 170 44 170 56" clip-path="url(#clipPath15)"/><polygon id="polygon220" fill="none" points="182 50 170 44 170 56" clip-path="url(#clipPath15)"/></g><g id="g222" fill="#000" fill-opacity="1" stroke="#000" stroke-dasharray="8 3" stroke-linecap="butt" stroke-linejoin="round" stroke-miterlimit="0" stroke-opacity="1" font-family="sans-serif" font-size="11" text-rendering="geometricPrecision" transform="translate(26,112)"><line id="line224" x1="182" x2="50" y1="50" y2="50" fill="none" clip-path="url(#clipPath15)"/><line id="line226" x1="50" x2="62" y1="50" y2="56" fill="none" stroke-dasharray="none" stroke-miterlimit="10" clip-path="url(#clipPath15)"/><line id="line228" x1="50" x2="62" y1="50" y2="44" fill="none" stroke-dasharray="none" stroke-miterlimit="10" clip-path="url(#clipPath15)"/></g><g id="g230" fill="#000" fill-opacity="1" stroke="#000" stroke-linecap="butt" stroke-linejoin="round" stroke-opacity="1" font-family="sans-serif" font-size="11" text-rendering="geometricPrecision" transform="translate(166,52)"><line id="line232" x1="50" x2="182" y1="50" y2="50" fill="none" clip-path="url(#clipPath15)"/><polygon id="polygon234" stroke="none" points="182 50 170 44 170 56" clip-path="url(#clipPath15)"/><polygon id="polygon236" fill="none" points="182 50 170 44 170 56" clip-path="url(#clipPath15)"/></g><g id="g238" fill="#000" fill-opacity="1" stroke="#000" stroke-dasharray="8 3" stroke-linecap="butt" stroke-linejoin="round" stroke-miterlimit="0" stroke-opacity="1" font-family="sans-serif" font-size="11" text-rendering="geometricPrecision" transform="translate(166,92)"><line id="line240" x1="182" x2="50" y1="50" y2="50" fill="none" clip-path="url(#clipPath15)"/><line id="line242" x1="50" x2="62" y1="50" y2="56" fill="none" stroke-dasharray="none" stroke-miterlimit="10" clip-path="url(#clipPath15)"/><line id="line244" x1="50" x2="62" y1="50" y2="44" fill="none" stroke-dasharray="none" stroke-miterlimit="10" clip-path="url(#clipPath15)"/></g><g id="g246" fill="#000" fill-opacity="1" stroke="#000" stroke-linecap="butt" stroke-linejoin="round" stroke-opacity="1" font-family="sans-serif" font-size="11" text-rendering="geometricPrecision" transform="translate(306,62)"><line id="line248" x1="50" x2="177" y1="50" y2="50" fill="none" clip-path="url(#clipPath16)"/><polygon id="polygon250" stroke="none" points="177 50 165 44 165 56" clip-path="url(#clipPath16)"/><polygon id="polygon252" fill="none" points="177 50 165 44 165 56" clip-path="url(#clipPath16)"/></g><g id="g254" fill="#000" fill-opacity="1" stroke="#000" stroke-dasharray="8 3" stroke-linecap="butt" stroke-linejoin="round" stroke-miterlimit="0" stroke-opacity="1" font-family="sans-serif" font-size="11" text-rendering="geometricPrecision" transform="translate(306,82)"><line id="line256" x1="177" x2="50" y1="50" y2="50" fill="none" clip-path="url(#clipPath16)"/><line id="line258" x1="50" x2="62" y1="50" y2="56" fill="none" stroke-dasharray="none" stroke-miterlimit="10" clip-path="url(#clipPath16)"/><line id="line260" x1="50" x2="62" y1="50" y2="44" fill="none" stroke-dasharray="none" stroke-miterlimit="10" clip-path="url(#clipPath16)"/></g><g id="g262" fill="#000" fill-opacity="1" stroke="#000" stroke-linecap="butt" stroke-linejoin="round" stroke-opacity="1" font-family="sans-serif" font-size="11" text-rendering="geometricPrecision" transform="translate(464,152)"><line id="line264" x1="50" x2="124" y1="50" y2="50" fill="none" clip-path="url(#clipPath17)"/><polygon id="polygon266" stroke="none" points="124 50 112 44 112 56" clip-path="url(#clipPath17)"/><polygon id="polygon268" fill="none" points="124 50 112 44 112 56" clip-path="url(#clipPath17)"/></g><g id="g270" fill="#000" fill-opacity="1" stroke="#000" stroke-linecap="butt" stroke-linejoin="round" stroke-opacity="1" font-family="sans-serif" font-size="11" text-rendering="geometricPrecision" transform="translate(166,182)"><line id="line272" x1="422" x2="50" y1="50" y2="50" fill="none" clip-path="url(#clipPath18)"/><polygon id="polygon274" stroke="none" points="50 50 62 56 62 44" clip-path="url(#clipPath18)"/><polygon id="polygon276" fill="none" points="50 50 62 56 62 44" clip-path="url(#clipPath18)"/></g><g id="g278" fill="#000" fill-opacity="1" stroke="#000" stroke-dasharray="8 3" stroke-linecap="butt" stroke-linejoin="round" stroke-miterlimit="0" stroke-opacity="1" font-family="sans-serif" font-size="11" text-rendering="geometricPrecision" transform="translate(166,202)"><line id="line280" x1="50" x2="422" y1="50" y2="50" fill="none" clip-path="url(#clipPath18)"/><line id="line282" x1="422" x2="410" y1="50" y2="44" fill="none" stroke-dasharray="none" stroke-miterlimit="10" clip-path="url(#clipPath18)"/><line id="line284" x1="422" x2="410" y1="50" y2="56" fill="none" stroke-dasharray="none" stroke-miterlimit="10" clip-path="url(#clipPath18)"/></g><g id="g286" fill="#000" fill-opacity="1" stroke="#000" stroke-dasharray="8 3" stroke-linecap="butt" stroke-linejoin="round" stroke-miterlimit="0" stroke-opacity="1" font-family="sans-serif" font-size="11" text-rendering="geometricPrecision" transform="translate(464,232)"><line id="line288" x1="124" x2="50" y1="50" y2="50" fill="none" clip-path="url(#clipPath17)"/><line id="line290" x1="50" x2="62" y1="50" y2="56" fill="none" stroke-dasharray="none" stroke-miterlimit="10" clip-path="url(#clipPath17)"/><line id="line292" x1="50" x2="62" y1="50" y2="44" fill="none" stroke-dasharray="none" stroke-miterlimit="10" clip-path="url(#clipPath17)"/></g><g id="g294" fill="#000" fill-opacity="1" stroke="#000" stroke-opacity="1" font-family="sans-serif" font-size="11" text-rendering="geometricPrecision" transform="translate(372,212)"><text id="text296" x="9" y="12" stroke="none" clip-path="url(#clipPath19)" xml:space="preserve">signal()</text></g><g id="g298" fill="#000" fill-opacity="1" stroke="#000" stroke-opacity="1" font-family="sans-serif" font-size="11" text-rendering="geometricPrecision" transform="translate(522,182)"><text id="text300" x="9" y="12" stroke="none" clip-path="url(#clipPath20)" xml:space="preserve">invoke()</text></g><g id="g302" fill="#000" fill-opacity="1" stroke="#000" stroke-opacity="1" font-family="sans-serif" font-size="11" text-rendering="geometricPrecision" transform="translate(372,92)"><text id="text304" x="10" y="12" stroke="none" clip-path="url(#clipPath21)" xml:space="preserve">sendMessage()</text></g><g id="g306" fill="#000" fill-opacity="1" stroke="#000" stroke-opacity="1" font-family="sans-serif" font-size="11" text-rendering="geometricPrecision" transform="translate(252,82)"><text id="text308" x="10" y="12" stroke="none" clip-path="url(#clipPath22)" xml:space="preserve">execute()</text></g><g id="g310" fill="#000" fill-opacity="1" stroke="#000" stroke-opacity="1" font-family="sans-serif" font-size="11" text-rendering="geometricPrecision" transform="translate(82,62)"><text id="text312" x="10" y="12" stroke="none" clip-path="url(#clipPath21)" xml:space="preserve">completeTask()</text></g></g></svg>